Patient4_TMGait_0pt6_01_left_18_EMG.mot
version=1
nRows=23
nColumns=33
inDegrees=no
endheader
time	1LAddLong	2LGlutMax	3LGlutMed	4LIliopsoas	5LSemiMemb	6LBicFemLong	7LRecFem	8LVastMed	9LVastLat	10LGasMed	11LTibAnt	12lTibPost	13LPeroneusLong	14LSol	15LExtDigLong	16LFlexDigLong	17RAddLong	18RGlutMax	19RGlutMed	20RIliopsoas	21RSemiMemb	22RBicFemLong	23RRecFem	24RVastMed	25RVastLat	26RGasMed	27RTibAnt	28RTibPost	29RPeroneusLong	30RSol	31RExtDigLong	32RFlexDigLong
23.148	0.023804	0.19119	-0.054016	-0.001526	0.018005	-0.034485	0.055695	0.00412	0.15533	-0.076904	0.012054	0.005646	0.050812	-0.074158	0.016174	-0.003815	0.019073	-0.2002	-0.023193	0.028076	0.04425	-0.012512	0.088654	-0.067749	-0.038452	-0.011597	0.001373	-0.036163	0.023346	-1.2688	-0.001068	-0.031128
23.149	0.006561	0.16113	-0.059204	0.01358	0.016785	-0.050812	0.044403	-0.004578	0.14999	-0.068817	0.00824	-0.006104	0.053253	-0.032501	0.010529	-0.005646	0.044861	-0.21316	0.29022	0.11704	-0.053711	-0.084076	0.085907	-0.039063	-0.037231	-0.059814	-0.045166	0.27786	0.18539	-1.4996	-0.001373	-0.028839
23.15	0.005951	0.19058	-0.028076	0.010834	0.000763	-0.035858	0.059052	0.005493	0.1471	-0.071259	0.012817	0.004272	0.058899	0.031128	-0.009918	0.005951	0.059357	-0.15198	0.57449	0.13336	-0.062103	-0.12695	0.023193	-0.050049	-0.026703	-0.095215	-0.000916	0.083771	0.17242	-0.52719	-0.000458	-0.019531
23.151	0.006561	0.15976	0.004272	0.006561	-0.003967	-0.058746	0.066223	0.008698	0.1358	-0.043488	0.022583	-0.001068	0.064545	0.009003	-0.028687	-0.002289	0.055389	-0.18417	0.19394	0.11231	-0.15076	-0.068665	-0.07843	-0.063019	0.036011	-0.024109	-0.13733	-0.04776	0.042572	0.70007	-0.002747	-0.011139
23.152	0.008392	0.16281	0.005646	0.005646	0.00061	-0.056305	0.064087	0.008698	0.13153	-0.032501	0.023041	0.003815	0.075073	0.026398	-0.016479	0.003052	-0.010071	-0.13763	0.093231	0.030365	0.10254	0.036011	-0.074463	0.029297	0.043182	-0.042419	-0.29816	0.043488	0.15701	0.94482	-0.001068	-0.006409
23.153	0.010529	0.159	-0.013885	0.005493	0.011292	-0.054321	0.06134	0.008698	0.13001	-0.031433	0.007782	-0.003815	0.056763	0.002289	-0.014648	0.003204	-0.057678	-0.16815	0.19638	0.022278	0.14114	0.062103	-0.12161	0.086517	0.027466	-0.005341	-0.12543	0.069122	0.42465	0.74371	-0.002594	-0.000763
23.154	0.005493	0.15182	-0.02655	-0.003357	-0.005493	-0.027618	0.052643	0.003662	0.12329	-0.033875	0.01236	0.009766	0.054169	-0.018005	-0.010529	-0.014343	-0.043793	-0.13748	0.31784	-0.02182	0.072784	0.063019	-0.14969	0.18188	0.062408	0.032806	0.22339	0.054016	0.29037	-0.18265	-0.001221	0.000916
23.155	0.020142	0.11734	-0.044708	0.010986	-0.003204	-0.032654	0.062103	0.005341	0.11536	-0.032196	-0.007324	0.007782	0.052032	-0.020905	-0.015259	0.000153	-0.024414	-0.13153	0.37201	-0.027771	0.10178	0.091248	-0.13245	0.084991	0.073395	0.005951	0.38605	-0.005951	-0.00412	-0.032654	-0.01358	0.006714
23.156	0.015564	0.10223	-0.065765	0.014191	0.035706	-0.009766	0.080566	0.001831	0.091858	-0.036011	-0.009155	0.004425	0.036316	0.02243	-0.012512	0.000916	0.000458	-0.16388	0.31021	0.005646	0.059662	-0.02121	-0.20035	0.019989	0.063782	0.007629	0.41489	-0.038147	-0.032501	0.58472	-0.006714	0.010071
23.157	0.014343	0.10346	-0.058136	-0.016327	0.055695	-0.004578	0.047913	0.005493	0.0914	-0.037689	-0.006866	0.007629	0.060577	0.054321	-0.018311	0.000153	0.027161	-0.11475	0.28336	0.02533	0.014496	-0.05249	-0.16693	-0.097046	0.071106	0.002136	0.28809	0.06546	0.006714	1.2354	-0.002136	0.002899
23.158	0.012054	0.094452	-0.053101	-0.015411	0.03479	0.013733	0.044556	0	0.098572	-0.032349	-0.02182	0.005951	0.10147	0.076599	-0.007935	-0.000305	0.020599	-0.049438	0.1564	-0.047607	-0.087738	-0.052338	-0.097046	-0.21851	0.024872	-0.002899	0.089569	-0.007019	0.062256	0.70297	-0.001068	0.000916
23.159	0.00824	0.1004	-0.042114	-0.005341	0.006866	0.018921	0.040894	0.00412	0.074921	-0.038605	-0.00824	0.002594	0.1152	0.068817	-0.001221	-0.000305	0.031891	-0.058289	0.41061	-0.17044	-0.13001	0.040131	-0.074463	-0.21469	0.007019	0.014648	0.20737	-0.02533	0.19486	0.051117	-0.001678	0.003052
23.16	0.005493	0.10147	-0.03067	0.023041	-0.015259	0.019684	0.037079	0.000458	0.076294	-0.061493	-0.002594	-0.005188	0.095825	0.069122	-0.005798	0.007782	0.000458	-0.020905	0.24719	-0.16251	-0.041656	0.16586	-0.20798	-0.17303	0.069122	0	-0.52658	-0.068359	0.079651	-0.48309	0.00473	0.010376
23.161	0.000305	0.069427	-0.008698	0.018921	-0.018158	0.03479	0.033722	0.006866	0.076447	-0.058746	0.002441	0.010834	0.059204	0.06546	-0.013733	-0.001373	0.010529	0.059967	0.26825	-0.060272	-0.06073	0.20386	-0.10162	-0.084076	0.059509	0.00824	-0.77377	-0.17944	0.001373	-0.69092	-0.001984	0.001831
23.162	0.009766	0.079193	-0.02533	0.02533	-0.007477	0.042419	0.036316	-0.000458	0.072937	-0.041962	0.002594	0.001984	-0.001221	0.037994	-0.019684	0.007324	0.041046	0.087738	0.4483	0.081635	-0.013733	0.10391	-0.16022	-0.093231	0.007629	0.071564	-0.52261	0.020142	0.14191	-0.13504	-0.00061	-0.003204
23.163	0.013428	0.093536	-0.043945	0.018921	-0.010376	0.049744	0.022583	-0.003357	0.070953	-0.032501	0.010681	0.006866	-0.000458	0.027924	0.005646	0.015259	0.02594	0.085754	0.18738	0.10727	0.009613	0.11978	-0.28153	0.036926	0.007019	0.039063	0.066071	0.12039	0.10819	-0.22263	0.000763	-0.021667
23.164	0.012054	0.042877	-0.057373	-0.005188	0.002899	0.030823	0.01709	-0.003357	0.066528	-0.018921	0.007172	0.001984	0.035095	-0.065918	0.023499	0.017395	-0.011749	0.065765	0.006256	0.098877	-0.019531	0.13962	-0.25818	0.086517	0.103	0.015869	0.34088	0.019226	-0.044403	-0.1976	-0.002289	-0.028534
23.165	0.012207	0.036926	-0.076294	-0.005951	0.022583	-0.027008	0.018463	0.012207	0.071716	-0.018311	0.006104	0.006409	0.061035	-0.10986	0.028687	0.007477	-0.010834	0.12116	-0.00946	0.072174	-0.060425	0.12222	-0.05249	0.12207	0.14664	0.00885	0.3569	0.002594	-0.074768	0.61386	-0.000458	-0.014496
23.166	0.016174	0.024567	-0.063782	-0.001678	0.027161	-0.034485	0.011292	-0.005493	0.074615	-0.014648	-0.000458	0.006104	0.078125	-0.048828	0.009766	0.008087	-0.011139	0.10422	-0.022125	0.04837	-0.028687	0.14435	-0.021057	0.19196	0.12497	-0.003052	0.053406	-0.013123	-0.065613	0.4921	-0.001221	-0.016174
23.167	0.011444	0.020447	-0.079193	0.007324	0.007019	-0.032349	0.016785	-0.019684	0.050049	-0.002747	-0.018616	0.01358	0.016479	-0.022888	0.28595	-0.015411	0	0.15167	0.091095	0.00885	-0.007782	0.10254	0.016327	0.15472	0.065155	-0.013733	-0.33157	-0.028381	0.010071	0.12817	-0.007629	-0.006409
23.168	0.00824	0.015411	-0.087738	0.010223	-0.003815	0.018921	0.017548	0.000763	0.056152	-0.014648	-0.028381	0.016022	-0.015106	-0.003052	-0.053406	-0.012512	0.00824	0.19669	0.11612	-0.021362	-0.021667	0.12436	-0.080109	0.056915	-0.00824	-0.00351	-0.68893	-0.035858	0.13336	0.031891	-0.001373	-0.011749
23.169	0.006866	0.042114	-0.09201	0.001373	-0.002899	0.016632	0.011139	0.006409	0.053711	-0.014343	-0.005035	0.010529	0.015564	-0.027313	0.17425	-0.010223	0.008545	0.19241	0.03891	-0.045166	-0.005798	0.14282	-0.27557	0.062866	0.023651	0.008698	-0.62698	-0.036926	0.09964	0.015717	-0.001221	-0.011444
23.17	-0.001373	0.019226	-0.03891	0.006409	0.042114	0.021057	0.009308	0.000153	0.069427	-0.024109	0.058289	0.005493	0.04776	-0.01358	-0.27008	0.00351	0.022736	0.1915	-0.052948	-0.013733	0.025482	0.11581	-0.21896	-0.008087	0.11475	0.018311	-0.20355	-0.034637	-0.08606	0.049286	-0.001984	-0.008698
